:FULLY-SPECIFIED
:FORCE-ALL-JOINTS-BE-3DOF
:DEGREES
2344
root 0.838865 14.1072 -18.4962 -161.173 -58.9891 168.125
lfemur -4.49528 -5.32546 1.24598
ltibia 33.7125 -0 0
lfoot -11.3204 26.5861 0.00215365
ltoes -45.6336 0 0
rfemur -67.8398 -12.2038 12.3754
rtibia 79.024 -0 0
rfoot -10.6384 -17.9664 0.0850159
rtoes 5.73348 -0 0
lowerback 20.0771 3.41633 -3.20061
upperback 0.415913 3.58646 -0.62512
thorax -11.0148 1.77224 0.106627
lowerneck -5.29289 -2.65645 -5.071
upperneck 2.51325 -3.22488 0.284112
head 1.91174 -1.63475 0.950606
lclavicle -1.25831e-13 3.18055e-15 0
lhumerus -37.3813 -20.645 88.3997
lradius 101.056 -0 0
lwrist 49.0527 0 0
lhand -24.4548 42.9665 -0.0288561
lfingers 7.12502 -0 0
lthumb 2.03898 72.8997 -0.0224457
rclavicle -1.25831e-13 3.18055e-15 0
rhumerus 49.4723 13.5615 -46.5651
rradius 48.6799 -0 0
rwrist 5.77256 0 0
rhand -6.56363 -37.8485 -0.0482583
rfingers 7.12502 -0 0
rthumb 19.2904 -66.9194 -0.0456961
2345
root 0.847923 14.1353 -18.6645 -159.67 -62.3659 166.769
lfemur -5.74558 -4.9264 1.02441
ltibia 35.0949 -0 0
lfoot -11.0383 26.3682 0.00213703
ltoes -44.9496 0 0
rfemur -67.3081 -11.6898 12.5436
rtibia 78.9515 -0 0
rfoot -10.8691 -18.4956 0.0976552
rtoes 5.47983 -0 0
lowerback 20.1334 3.36751 -2.96791
upperback 0.402472 3.58427 -0.576812
thorax -11.0537 1.7609 0.0268012
lowerneck -5.35399 -2.27639 -4.78161
upperneck 2.64434 -2.71938 -0.071268
head 1.95856 -1.38476 0.821116
lclavicle -1.25831e-13 3.18055e-15 0
lhumerus -35.2225 -21.7398 88.0805
lradius 101.315 -0 0
lwrist 46.9942 0 0
lhand -24.8858 42.8662 -0.0339414
lfingers 7.12502 -0 0
lthumb 1.6229 72.7964 -0.0263964
rclavicle -1.25831e-13 3.18055e-15 0
rhumerus 48.7737 14.9558 -46.4486
rradius 50.0595 -0 0
rwrist 4.97852 0 0
rhand -6.28632 -37.8702 -0.0559682
rfingers 7.12502 -0 0
rthumb 19.557 -66.9152 -0.0529561
2346
root 0.854053 14.163 -18.8324 -157.674 -65.8814 164.921
lfemur -7.04684 -4.50609 0.763421
ltibia 36.5515 -0 0
lfoot -10.7501 26.1478 0.00227965
ltoes -44.2267 0 0
rfemur -66.7505 -11.1578 12.7235
rtibia 78.8736 -0 0
rfoot -11.1118 -19.0225 0.109173
rtoes 5.20988 -0 0
lowerback 20.1814 3.31608 -2.73293
upperback 0.385176 3.58003 -0.526945
thorax -11.0919 1.7486 -0.0519196
lowerneck -5.41111 -1.88376 -4.48227
upperneck 2.78277 -2.19704 -0.435691
head 2.00884 -1.12688 0.687789
lclavicle -1.25831e-13 3.18055e-15 0
lhumerus -32.9473 -22.8896 87.7104
lradius 101.59 -0 0
lwrist 44.8296 0 0
lhand -25.3305 42.7689 -0.0391737
lfingers 7.12502 -0 0
lthumb 1.19358 72.6955 -0.0304988
rclavicle -1.25831e-13 3.18055e-15 0
rhumerus 48.0294 16.4095 -46.3542
rradius 51.4877 -0 0
rwrist 4.1653 0 0
rhand -6.00612 -37.8977 -0.0634228
rfingers 7.12502 -0 0
rthumb 19.8264 -66.9162 -0.0599931
2347
root 0.857416 14.1901 -18.9999 -154.905 -69.5069 162.298
lfemur -8.39512 -4.06779 0.463261
ltibia 38.0769 -0 0
lfoot -10.4568 25.9255 0.00265752
ltoes -43.4678 0 0
rfemur -66.169 -10.6097 12.915
rtibia 78.7906 -0 0
rfoot -11.3656 -19.5459 0.119372
rtoes 4.92471 -0 0
lowerback 20.2212 3.26226 -2.49627
upperback 0.364174 3.57382 -0.475677
thorax -11.1295 1.73538 -0.129388
lowerneck -5.46399 -1.47982 -4.17397
upperneck 2.92766 -1.65939 -0.807877
head 2.06229 -0.861902 0.551079
lclavicle -1.25831e-13 3.18055e-15 0
lhumerus -30.5579 -24.0871 87.2822
lradius 101.879 -0 0
lwrist 42.5669 0 0
lhand -25.7875 42.6745 -0.0445577
lfingers 7.12502 -0 0
lthumb 0.752385 72.597 -0.034767
rclavicle -1.25831e-13 3.18055e-15 0
rhumerus 47.2406 17.9176 -46.2852
rradius 52.9599 -0 0
rwrist 3.33531 0 0
rhand -5.72375 -37.9308 -0.0705655
rfingers 7.12502 -0 0
rthumb 20.0978 -66.9221 -0.0667622
